<mxfile host="app.diagrams.net" modified="2024-05-16T16:15:19.136Z" agent="Mozilla/5.0 (Macintosh; Intel Mac OS X 10_15_7) AppleWebKit/605.1.15 (KHTML, like Gecko) Version/15.6.1 Safari/605.1.15" version="24.4.3" etag="jPagXk9XmkhBGl5m9vau" type="github">
  <diagram name="Страница — 1" id="r7fxRsTUtzwWGXCsuDcH">
    <mxGraphModel>
      <root>
        <mxCell id="0" />
        <mxCell id="1" parent="0" />
      </root>
    </mxGraphModel>
  </diagram>
</mxfile>
